<svg xmlns="http://www.w3.org/2000/svg" width="32" height="32" viewBox="0 0 32 32" fill="none"><path fill-rule="evenodd" clip-rule="evenodd" d="M6.0067 15.9993C6.0067 10.4802 10.4809 6.00603 16 6.00603C21.5192 6.00603 25.9933 10.4802 25.9933 15.9993C25.9933 21.5185 21.5192 25.9927 16 25.9927C10.4809 25.9927 6.0067 21.5185 6.0067 15.9993ZM16 2.66602C8.63622 2.66602 2.66669 8.63555 2.66669 15.9993C2.66669 23.3631 8.63622 29.3327 16 29.3327C23.3638 29.3327 29.3334 23.3631 29.3334 15.9993C29.3334 8.63555 23.3638 2.66602 16 2.66602ZM17.3491 10.3481C17.3491 9.42575 16.6015 8.67806 15.6791 8.67806C14.7568 8.67806 14.0091 9.42575 14.0091 10.3481V16.7743C14.0091 17.2221 14.189 17.6512 14.5084 17.9651L17.6747 21.078C18.3324 21.7246 19.3897 21.7156 20.0364 21.0579C20.683 20.4002 20.674 19.3429 20.0163 18.6963L17.3491 16.0742V10.3481Z" fill="black" fill-opacity="0.4"/></svg>