<svg width="66" height="26" viewBox="0 0 66 26" fill="none" xmlns="http://www.w3.org/2000/svg"><path d="M20.1765 7.31266C18.5358 5.4873 16.1189 4.3335 13.4238 4.3335C8.48126 4.3335 4.47461 8.21367 4.47461 13.0002C4.47461 17.7867 8.48126 21.6668 13.4238 21.6668C16.1189 21.6668 18.5358 20.513 20.1765 18.6877" stroke="white"/><path d="M19.8559 7.0415C18.2249 7.87545 15.983 8.6665 13.4237 8.6665C10.8643 8.6665 8.55597 8.14629 6.92493 7.31234" stroke="white"/><path d="M19.8559 18.9585C18.2249 18.1245 15.983 17.3335 13.4237 17.3335C10.8643 17.3335 8.55597 17.8537 6.92493 18.6877" stroke="white"/><path d="M13.4238 21.3957C11.8434 21.3957 10.382 20.4936 9.30371 18.9746C8.22628 17.4569 7.5509 15.3454 7.5509 12.9998C7.5509 10.6543 8.22628 8.54273 9.30371 7.02504C10.382 5.5061 11.8434 4.604 13.4238 4.604C15.0041 4.604 16.4655 5.5061 17.5439 7.02504C18.6213 8.54273 19.2967 10.6543 19.2967 12.9998C19.2967 15.3454 18.6213 17.4569 17.5439 18.9746C16.4655 20.4936 15.0041 21.3957 13.4238 21.3957Z" stroke="white"/><path d="M13.4237 21.3957C13.168 21.3957 12.8729 21.2345 12.56 20.8245C12.2512 20.4197 11.9614 19.8168 11.7131 19.0473C11.2176 17.5116 10.9067 15.3735 10.9067 12.9998C10.9067 10.6262 11.2176 8.48802 11.7131 6.95235C11.9614 6.18291 12.2513 5.57992 12.56 5.17518C12.8729 4.76513 13.168 4.604 13.4237 4.604C13.6794 4.604 13.9745 4.76513 14.2873 5.17518C14.5961 5.57992 14.886 6.18291 15.1343 6.95235C15.6298 8.48802 15.9406 10.6262 15.9406 12.9998C15.9406 15.3735 15.6298 17.5116 15.1343 19.0473C14.886 19.8168 14.5961 20.4197 14.2873 20.8245C13.9745 21.2345 13.6794 21.3957 13.4237 21.3957Z" stroke="white"/><path d="M4.47461 12.729H20.1356" stroke="white"/><path d="M23.7368 6.37572V14.0834H21.6672V6.37572H23.7368ZM28.9526 8.70846H27.0305V8.13722C27.0305 7.87061 27.0059 7.7008 26.9567 7.62778C26.9076 7.55482 26.8256 7.51831 26.711 7.51831C26.5864 7.51831 26.4914 7.56749 26.4258 7.66586C26.3636 7.76428 26.3324 7.91345 26.3324 8.11338C26.3324 8.37046 26.3685 8.56405 26.4406 8.69421C26.5094 8.82432 26.7044 8.98146 27.0256 9.16552C27.9465 9.69554 28.5266 10.1303 28.7658 10.47C29.005 10.8096 29.1247 11.357 29.1247 12.1124C29.1247 12.6615 29.0575 13.0662 28.9231 13.3264C28.792 13.5867 28.5364 13.8056 28.1562 13.9834C27.7761 14.1579 27.3336 14.2452 26.8289 14.2452C26.2751 14.2452 25.8015 14.1437 25.4083 13.9405C25.0182 13.7374 24.7626 13.4788 24.6414 13.1645C24.5201 12.8503 24.4595 12.4044 24.4595 11.8268V11.3221H26.3816V12.26C26.3816 12.5488 26.4078 12.7345 26.4602 12.817C26.5159 12.8995 26.6126 12.9408 26.7503 12.9408C26.8879 12.9408 26.9895 12.8884 27.0551 12.7837C27.1239 12.6789 27.1583 12.5234 27.1583 12.3172C27.1583 11.8633 27.0944 11.5665 26.9666 11.4269C26.8355 11.2872 26.5127 11.0539 25.9981 10.727C25.4836 10.3969 25.1428 10.1574 24.9756 10.0082C24.8085 9.85901 24.6692 9.65269 24.5578 9.38928C24.4496 9.12587 24.3956 8.78944 24.3956 8.37999C24.3956 7.78968 24.4726 7.35803 24.6266 7.08508C24.7839 6.81214 25.0363 6.59948 25.3837 6.44711C25.731 6.2916 26.1505 6.21387 26.6421 6.21387C27.1796 6.21387 27.6368 6.29799 28.0137 6.46618C28.3938 6.63436 28.6446 6.84702 28.7658 7.1041C28.8903 7.35803 28.9526 7.79125 28.9526 8.40377V8.70846ZM34.5076 10.8889C34.5076 11.6633 34.488 12.2124 34.4486 12.5361C34.4126 12.8567 34.2946 13.1502 34.0946 13.4168C33.898 13.6835 33.6309 13.8881 33.2934 14.031C32.9558 14.1738 32.5625 14.2452 32.1135 14.2452C31.6875 14.2452 31.3041 14.1786 30.9632 14.0453C30.6257 13.9088 30.3537 13.7057 30.1472 13.4359C29.9407 13.1661 29.8178 12.8725 29.7785 12.5552C29.7391 12.2378 29.7195 11.6824 29.7195 10.8889V9.5702C29.7195 8.79578 29.7375 8.24826 29.7735 7.9277C29.8129 7.604 29.9309 7.30885 30.1275 7.04224C30.3274 6.77563 30.5962 6.57093 30.9337 6.4281C31.2713 6.28526 31.6646 6.21387 32.1135 6.21387C32.5396 6.21387 32.9214 6.28212 33.259 6.41856C33.5998 6.55187 33.8734 6.75342 34.0799 7.02317C34.2864 7.29298 34.4093 7.58656 34.4486 7.90392C34.488 8.22128 34.5076 8.77671 34.5076 9.5702V10.8889ZM32.438 8.35621C32.438 7.99752 32.4167 7.76905 32.3741 7.67063C32.3347 7.56906 32.2512 7.51831 32.1234 7.51831C32.0153 7.51831 31.9316 7.55958 31.8727 7.64208C31.817 7.72143 31.7891 7.95944 31.7891 8.35621V11.9553C31.7891 12.4028 31.8071 12.6789 31.8431 12.7837C31.8825 12.8884 31.971 12.9408 32.1087 12.9408C32.2496 12.9408 32.3397 12.8805 32.379 12.7599C32.4184 12.6393 32.438 12.352 32.438 11.8982V8.35621Z" fill="white"/><path d="M42.3899 12.7693V14.0833H38.0197V12.9835C39.3142 10.9333 40.0827 9.66534 40.3252 9.17973C40.571 8.69093 40.6939 8.31009 40.6939 8.03714C40.6939 7.82768 40.6562 7.67216 40.5808 7.5706C40.5087 7.46584 40.3973 7.41346 40.2466 7.41346C40.0958 7.41346 39.9828 7.47061 39.9074 7.58485C39.8353 7.69914 39.7992 7.92604 39.7992 8.26567V8.99881H38.0197V8.71791C38.0197 8.28631 38.0426 7.94668 38.0885 7.69914C38.1344 7.4484 38.2474 7.20243 38.4277 6.96123C38.6079 6.71997 38.8422 6.53748 39.1306 6.41371C39.4191 6.28994 39.7648 6.22803 40.1679 6.22803C40.9577 6.22803 41.5542 6.41848 41.9573 6.79932C42.3637 7.17703 42.5669 7.65629 42.5669 8.23707C42.5669 8.67826 42.4522 9.14479 42.2228 9.63674C41.9967 10.1287 41.3264 11.1729 40.2121 12.7693H42.3899ZM46.6618 6.37563V8.05615L45.3935 14.0833H43.4173L44.8282 7.761H42.8667V6.37563H46.6618ZM51.7892 8.98451V11.5553C51.7892 12.1393 51.7564 12.5646 51.6908 12.8312C51.6253 13.0978 51.4892 13.3469 51.2828 13.5787C51.0764 13.8103 50.8272 13.9769 50.5356 14.0785C50.2439 14.1801 49.9178 14.2309 49.5573 14.2309C49.0821 14.2309 48.6872 14.1785 48.3726 14.0737C48.058 13.9658 47.8072 13.7992 47.6204 13.5739C47.4337 13.3486 47.3009 13.1121 47.2222 12.8645C47.1436 12.6138 47.1043 12.2171 47.1043 11.6743V8.98451C47.1043 8.27677 47.1665 7.74675 47.2911 7.39445C47.4189 7.04215 47.6696 6.75967 48.0432 6.54701C48.4201 6.33436 48.8756 6.22803 49.4099 6.22803C49.8457 6.22803 50.2357 6.30261 50.5798 6.45179C50.9239 6.59782 51.1812 6.77711 51.3516 6.98977C51.522 7.20243 51.6367 7.44206 51.6957 7.70862C51.758 7.97523 51.7892 8.40054 51.7892 8.98451ZM49.8031 8.33706C49.8031 7.92761 49.7818 7.67216 49.7392 7.5706C49.6999 7.46584 49.6048 7.41346 49.4541 7.41346C49.3066 7.41346 49.2083 7.46904 49.1591 7.58008C49.1132 7.68804 49.0903 7.94034 49.0903 8.33706V12.0981C49.0903 12.5455 49.1116 12.8153 49.1542 12.9074C49.2001 12.9994 49.2968 13.0454 49.4443 13.0454C49.5917 13.0454 49.6884 12.9915 49.7343 12.8836C49.7802 12.7756 49.8031 12.5329 49.8031 12.1552V8.33706ZM57.1867 8.98451V11.5553C57.1867 12.1393 57.1543 12.5646 57.0883 12.8312C57.0228 13.0978 56.8869 13.3469 56.6805 13.5787C56.4741 13.8103 56.2247 13.9769 55.9333 14.0785C55.6416 14.1801 55.3155 14.2309 54.955 14.2309C54.4798 14.2309 54.0849 14.1785 53.7703 14.0737C53.4557 13.9658 53.2049 13.7992 53.0181 13.5739C52.8313 13.3486 52.6986 13.1121 52.6199 12.8645C52.5413 12.6138 52.502 12.2171 52.502 11.6743V8.98451C52.502 8.27677 52.5642 7.74675 52.6888 7.39445C52.8166 7.04215 53.0673 6.75967 53.4409 6.54701C53.8178 6.33436 54.2733 6.22803 54.8075 6.22803C55.2434 6.22803 55.6334 6.30261 55.9775 6.45179C56.3215 6.59782 56.5787 6.77711 56.7493 6.98977C56.9199 7.20243 57.0346 7.44206 57.0933 7.70862C57.156 7.97523 57.1867 8.40054 57.1867 8.98451ZM55.2008 8.33706C55.2008 7.92761 55.1795 7.67216 55.1369 7.5706C55.0975 7.46584 55.0025 7.41346 54.8518 7.41346C54.7043 7.41346 54.606 7.46904 54.5568 7.58008C54.5109 7.68804 54.488 7.94034 54.488 8.33706V12.0981C54.488 12.5455 54.5093 12.8153 54.5519 12.9074C54.5978 12.9994 54.6944 13.0454 54.8419 13.0454C54.9894 13.0454 55.0861 12.9915 55.1319 12.8836C55.1779 12.7756 55.2008 12.5329 55.2008 12.1552V8.33706ZM60.9621 6.37563V14.0833H58.976V9.95096C58.976 9.35426 58.9615 8.99562 58.9318 8.87504C58.9027 8.75441 58.8205 8.66396 58.6863 8.60367C58.5548 8.54019 58.2601 8.50844 57.8014 8.50844H57.6045V7.60868C58.5649 7.4087 59.2942 6.99768 59.792 6.37563H60.9621Z" fill="white"/><path d="M22.8987 20.123C22.5948 20.123 22.3375 20.0571 22.1268 19.9253C21.9161 19.7936 21.7558 19.6121 21.6458 19.381C21.5377 19.148 21.4818 18.8808 21.478 18.5793C21.4818 18.2723 21.5396 18.0033 21.6514 17.7722C21.7633 17.5393 21.9245 17.3588 22.1352 17.2305C22.3459 17.1005 22.6013 17.0355 22.9015 17.0355C23.2073 17.0355 23.473 17.1078 23.6985 17.2522C23.926 17.3967 24.0817 17.5944 24.1656 17.8453L23.7629 17.9699C23.692 17.7948 23.5792 17.6594 23.4245 17.5637C23.2716 17.4662 23.0963 17.4174 22.8987 17.4174C22.6768 17.4174 22.4932 17.4671 22.3478 17.5664C22.2023 17.6639 22.0942 17.8002 22.0234 17.9753C21.9525 18.1505 21.9161 18.3518 21.9143 18.5793C21.918 18.9296 22.0019 19.2113 22.166 19.4243C22.33 19.6355 22.5743 19.7412 22.8987 19.7412C23.1038 19.7412 23.2781 19.6961 23.4217 19.6058C23.5671 19.5137 23.6771 19.38 23.7517 19.2049L24.1656 19.3241C24.0537 19.5841 23.8897 19.7827 23.6734 19.9199C23.4571 20.0553 23.1989 20.123 22.8987 20.123ZM26.0229 20.123C25.7283 20.123 25.4729 20.0598 25.2566 19.9335C25.0422 19.8071 24.8753 19.6292 24.756 19.3999C24.6367 19.1706 24.577 18.9016 24.577 18.5928C24.577 18.2733 24.6357 17.997 24.7532 17.7641C24.8707 17.5312 25.0356 17.3515 25.2482 17.2251C25.4626 17.0988 25.7152 17.0355 26.0061 17.0355C26.3044 17.0355 26.5589 17.1023 26.7695 17.236C26.9802 17.3678 27.1397 17.5573 27.2478 17.8047C27.3559 18.0521 27.4053 18.3473 27.396 18.6903H26.9765V18.5495C26.9691 18.1703 26.8842 17.8842 26.722 17.691C26.5617 17.4978 26.3268 17.4012 26.0173 17.4012C25.6929 17.4012 25.444 17.5032 25.2706 17.7072C25.0991 17.9113 25.0133 18.2019 25.0133 18.5793C25.0133 18.9476 25.0991 19.2338 25.2706 19.4378C25.444 19.64 25.6892 19.7412 26.0061 19.7412C26.2224 19.7412 26.4107 19.6933 26.571 19.5976C26.7332 19.5001 26.8609 19.3602 26.9541 19.1778L27.3373 19.3214C27.218 19.576 27.0418 19.7737 26.8087 19.9145C26.5775 20.0536 26.3156 20.123 26.0229 20.123ZM24.8679 18.6903V18.3572H27.1751V18.6903H24.8679ZM28.1005 20.0418V17.1168H28.4697V17.821L28.397 17.7289C28.4305 17.6422 28.4744 17.5628 28.5284 17.4905C28.5825 17.4165 28.6412 17.3561 28.7046 17.3091C28.7829 17.2423 28.8743 17.1917 28.9786 17.1574C29.0831 17.1213 29.1884 17.1005 29.2947 17.0951C29.4009 17.0879 29.4979 17.0951 29.5855 17.1168V17.4905C29.4755 17.4635 29.3553 17.4571 29.2247 17.4716C29.0943 17.4861 28.974 17.5366 28.864 17.6233C28.7633 17.6991 28.6878 17.7903 28.6375 17.8968C28.5871 18.0015 28.5536 18.1135 28.5368 18.2326C28.52 18.35 28.5116 18.4665 28.5116 18.582V20.0418H28.1005ZM31.8444 20.0418C31.6747 20.0761 31.5069 20.0896 31.3409 20.0824C31.1769 20.0752 31.0296 20.0409 30.8991 19.9795C30.7704 19.9181 30.6726 19.8224 30.6054 19.6924C30.5514 19.5841 30.5215 19.4748 30.5159 19.3647C30.5123 19.2528 30.5103 19.1255 30.5103 18.9828V16.3043H30.9187V18.9666C30.9187 19.0894 30.9196 19.1923 30.9215 19.2753C30.9252 19.3566 30.9448 19.4288 30.9802 19.492C31.0473 19.613 31.1536 19.6852 31.2991 19.7087C31.4463 19.7321 31.6281 19.7267 31.8444 19.6924V20.0418ZM29.8643 17.458V17.1168H31.8444V17.458H29.8643ZM32.5793 16.5616V16.1147H32.9904V16.5616H32.5793ZM32.5793 20.0418V17.1168H32.9904V20.0418H32.5793ZM34.2119 20.0418V16.9001C34.2119 16.8243 34.2156 16.7494 34.2231 16.6753C34.2324 16.6013 34.2501 16.5309 34.2762 16.4641C34.3023 16.3955 34.3433 16.3323 34.3993 16.2745C34.4608 16.2095 34.5279 16.1625 34.6006 16.1337C34.6733 16.103 34.7488 16.0831 34.8271 16.0741C34.9073 16.065 34.9857 16.0605 35.0621 16.0605H35.448V16.3964H35.09C34.9334 16.3964 34.816 16.4334 34.7377 16.5074C34.6612 16.5815 34.623 16.6979 34.623 16.8568V20.0418H34.2119ZM33.6889 17.458V17.1168H35.448V17.458H33.6889ZM36.0353 16.5616V16.1147H36.4464V16.5616H36.0353ZM36.0353 20.0418V17.1168H36.4464V20.0418H36.0353ZM38.6447 20.123C38.3502 20.123 38.0948 20.0598 37.8785 19.9335C37.6641 19.8071 37.4972 19.6292 37.3779 19.3999C37.2586 19.1706 37.1989 18.9016 37.1989 18.5928C37.1989 18.2733 37.2576 17.997 37.3751 17.7641C37.4925 17.5312 37.6575 17.3515 37.8701 17.2251C38.0845 17.0988 38.3371 17.0355 38.628 17.0355C38.9263 17.0355 39.1808 17.1023 39.3914 17.236C39.6021 17.3678 39.7615 17.5573 39.8697 17.8047C39.9778 18.0521 40.0272 18.3473 40.0179 18.6903H39.5984V18.5495C39.5909 18.1703 39.5061 17.8842 39.3439 17.691C39.1836 17.4978 38.9487 17.4012 38.6391 17.4012C38.3147 17.4012 38.0658 17.5032 37.8925 17.7072C37.721 17.9113 37.6352 18.2019 37.6352 18.5793C37.6352 18.9476 37.721 19.2338 37.8925 19.4378C38.0658 19.64 38.311 19.7412 38.628 19.7412C38.8442 19.7412 39.0326 19.6933 39.1929 19.5976C39.3551 19.5001 39.4828 19.3602 39.576 19.1778L39.9591 19.3214C39.8398 19.576 39.6637 19.7737 39.4306 19.9145C39.1994 20.0536 38.9375 20.123 38.6447 20.123ZM37.4897 18.6903V18.3572H39.7969V18.6903H37.4897ZM41.8942 20.123C41.6127 20.123 41.3722 20.0553 41.1727 19.9199C40.9732 19.7827 40.8203 19.5976 40.714 19.3647C40.6077 19.1318 40.5546 18.8691 40.5546 18.5766C40.5546 18.2859 40.6068 18.0241 40.7112 17.7912C40.8175 17.5583 40.9694 17.3741 41.1671 17.2387C41.3647 17.1033 41.6015 17.0355 41.8774 17.0355C42.1608 17.0355 42.3995 17.1023 42.5933 17.236C42.7872 17.3696 42.9336 17.5528 43.0324 17.7858C43.1331 18.0169 43.1834 18.2805 43.1834 18.5766C43.1834 18.8673 43.134 19.13 43.0352 19.3647C42.9364 19.5976 42.791 19.7827 42.5989 19.9199C42.4069 20.0553 42.172 20.123 41.8942 20.123ZM41.9361 19.752C42.1506 19.752 42.3277 19.7015 42.4675 19.6003C42.6073 19.4992 42.7117 19.3602 42.7807 19.1833C42.8497 19.0045 42.8842 18.8023 42.8842 18.5766C42.8842 18.3473 42.8497 18.145 42.7807 17.9699C42.7117 17.793 42.6073 17.6548 42.4675 17.5555C42.3296 17.4563 42.1552 17.4066 41.9445 17.4066C41.7283 17.4066 41.5493 17.458 41.4076 17.561C41.2659 17.6639 41.1606 17.8038 41.0915 17.9808C41.0244 18.1577 40.9909 18.3563 40.9909 18.5766C40.9909 18.7987 41.0254 18.9991 41.0943 19.1778C41.1652 19.3548 41.2705 19.4947 41.4104 19.5976C41.5502 19.7005 41.7255 19.752 41.9361 19.752ZM42.8842 20.0418V17.8399H42.8394V16.1418H43.2533V20.0418H42.8842Z" fill="white"/></svg>