<svg width="18" height="18" viewBox="0 0 18 18" fill="none" xmlns="http://www.w3.org/2000/svg"><g id="linkedin"><path id="Vector" d="M11.8766 5.97461C13.008 5.97461 14.093 6.42404 14.893 7.22402C15.6929 8.02401 16.1424 9.10902 16.1424 10.2404V15.2171H13.2985V10.2404C13.2985 9.86325 13.1487 9.50158 12.8821 9.23492C12.6154 8.96826 12.2537 8.81845 11.8766 8.81845C11.4995 8.81845 11.1378 8.96826 10.8712 9.23492C10.6045 9.50158 10.4547 9.86325 10.4547 10.2404V15.2171H7.61084V10.2404C7.61084 9.10902 8.06027 8.02401 8.86025 7.22402C9.66024 6.42404 10.7453 5.97461 11.8766 5.97461Z" fill="white"/><path id="Vector_2" d="M4.76718 6.68555H1.92334V15.2171H4.76718V6.68555Z" fill="white"/><path id="Vector_3" d="M3.34526 4.55673C4.13057 4.55673 4.76718 3.92012 4.76718 3.13481C4.76718 2.34951 4.13057 1.71289 3.34526 1.71289C2.55996 1.71289 1.92334 2.34951 1.92334 3.13481C1.92334 3.92012 2.55996 4.55673 3.34526 4.55673Z" fill="white"/></g></svg>