<svg width="18" height="18" viewBox="0 0 18 18" fill="none" xmlns="http://www.w3.org/2000/svg"><path d="M12.5277 2.23633H5.41808C3.45482 2.23633 1.86328 3.82787 1.86328 5.79113V12.9007C1.86328 14.864 3.45482 16.4555 5.41808 16.4555H12.5277C14.4909 16.4555 16.0825 14.864 16.0825 12.9007V5.79113C16.0825 3.82787 14.4909 2.23633 12.5277 2.23633Z" fill="white"/><path d="M11.821 8.8935C11.9087 9.48519 11.8077 10.0895 11.5322 10.6204C11.2567 11.1514 10.8208 11.5819 10.2865 11.8509C9.75217 12.1198 9.14667 12.2134 8.55611 12.1184C7.96554 12.0233 7.41997 11.7445 6.99701 11.3215C6.57404 10.8986 6.29521 10.353 6.20018 9.76244C6.10515 9.17187 6.19876 8.56638 6.46769 8.03208C6.73662 7.49778 7.16717 7.06188 7.69812 6.78638C8.22906 6.51089 8.83336 6.40982 9.42505 6.49756C10.0286 6.58706 10.5874 6.8683 11.0188 7.29974C11.4502 7.73118 11.7315 8.28995 11.821 8.8935Z" stroke="#2D2DE1" stroke-width="1.42192" stroke-linecap="round" stroke-linejoin="round"/><path d="M12.8828 5.43555H12.8905" stroke="#2D2DE1" stroke-width="1.42192" stroke-linecap="round" stroke-linejoin="round"/></svg>