<svg xmlns="http://www.w3.org/2000/svg" width="32" height="32" viewBox="0 0 32 32" fill="none"><path d="M20.5695 28C19 27.987 17.2489 27.5326 15.394 26.6108C12.7868 25.3125 10.4779 23.4689 8.32474 20.9631C6.83307 19.2364 5.74349 17.4966 4.96523 15.64C4.26479 13.9652 3.95348 12.3942 4.00537 10.8622C4.07022 8.96667 4.73175 7.36974 5.97697 6.12335C6.66444 5.42226 7.44271 4.63029 8.59714 4.22781C10.2574 3.64356 12.229 4.21482 13.2927 5.57806L14.953 7.7073C16.1852 9.29125 16.1593 11.5633 14.8881 13.1083C14.6028 13.4588 14.3174 13.7964 14.032 14.134C14.6676 15.3025 15.5107 16.3151 16.5614 17.1331C16.9765 17.4577 17.4175 17.7563 17.8715 17.99L18.8443 17.159C20.4916 15.7828 22.8005 15.7958 24.4608 17.185C25.0575 17.6784 25.6671 18.1458 26.2897 18.6002C27.8722 19.7817 28.43 21.9239 27.6517 23.7026C27.4701 24.118 27.2755 24.4296 27.042 24.7153L26.9253 24.8451C26.2508 25.65 25.4985 26.5589 24.3181 27.1561C23.1896 27.7274 21.9963 28 20.5695 28ZM9.94613 7.25289C9.85533 7.25289 9.76454 7.26587 9.67374 7.29184C9.21975 7.44763 8.80467 7.8631 8.33772 8.35646C7.6243 9.08352 7.28706 9.91444 7.24814 10.992C7.20923 12.0437 7.44271 13.1602 7.94858 14.3936C8.58417 15.9256 9.51809 17.3798 10.7763 18.8469C12.6441 21.0151 14.6287 22.612 16.8338 23.7026C18.2347 24.4037 19.4929 24.7672 20.5824 24.7802C21.5034 24.7802 22.1909 24.6374 22.8524 24.2868C23.4361 23.9882 23.903 23.4299 24.4478 22.7808L24.5775 22.638C24.5775 22.638 24.6294 22.573 24.6943 22.4302C24.8629 22.0407 24.7332 21.5084 24.4089 21.2617C23.6955 20.7294 23.034 20.2361 22.3984 19.7038C21.9444 19.3272 21.3737 19.3143 20.9327 19.6778L19.2853 21.067C18.7535 21.5084 18.0271 21.6253 17.4045 21.3656C16.4057 20.9631 15.4589 20.3919 14.5638 19.7038C12.8646 18.3795 11.5675 16.6917 10.6985 14.7052C10.4001 14.0171 10.5039 13.2901 10.9968 12.7188C11.4638 12.1735 11.9307 11.6282 12.3977 11.0699C12.709 10.6934 12.7219 10.1222 12.3977 9.73267L10.7374 7.60343C10.5817 7.3957 10.2445 7.26587 9.9591 7.26587L9.94613 7.25289Z" fill="black" fill-opacity="0.4"/></svg>